<svg width="294" height="370" viewBox="0 0 294 370" fill="none" xmlns="http://www.w3.org/2000/svg">
<path d="M5.47385 5.36009C5.67283 3.99379 4.72652 2.72488 3.36023 2.52591C1.99393 2.32693 0.72502 3.27323 0.526044 4.63953L5.47385 5.36009ZM41.5 52.9998L41.3103 50.5071L41.5 52.9998ZM268.5 20.9998L266.796 22.829L268.5 20.9998ZM218.5 138.5L217.941 140.937L218.5 138.5ZM56.5 144L54.7532 142.212L56.5 144ZM40.8755 369.421C42.2124 369.766 43.5758 368.961 43.9207 367.625L49.5414 345.838C49.8863 344.501 49.0821 343.138 47.7451 342.793C46.4082 342.448 45.0448 343.252 44.6999 344.589L39.7038 363.955L20.3379 358.959C19.0009 358.614 17.6375 359.418 17.2926 360.755C16.9477 362.092 17.7519 363.455 19.0888 363.8L40.8755 369.421ZM0.0408566 9.3444C-0.0463448 10.7224 1.00002 11.9101 2.37797 11.9973C3.75593 12.0845 4.94367 11.0381 5.03087 9.66018L0.0408566 9.3444ZM5.12321 18.359C5.00651 16.9832 3.79662 15.9625 2.42085 16.0792C1.04508 16.1959 0.0244009 17.4058 0.1411 18.7816L5.12321 18.359ZM1.70124 28.1323C2.04502 29.4695 3.40774 30.2748 4.74497 29.9311C6.0822 29.5873 6.88756 28.2246 6.54378 26.8873L1.70124 28.1323ZM9.49609 34.8776C8.87451 33.6447 7.37117 33.1491 6.13829 33.7707C4.9054 34.3923 4.40985 35.8956 5.03143 37.1285L9.49609 34.8776ZM10.5487 45.1558C11.487 46.1688 13.0687 46.2294 14.0817 45.2912C15.0946 44.3529 15.1552 42.7712 14.217 41.7582L10.5487 45.1558ZM20.7024 46.844C19.4944 46.1753 17.9731 46.6126 17.3044 47.8206C16.6358 49.0287 17.0731 50.55 18.2811 51.2186L20.7024 46.844ZM27.4021 54.6315C28.7494 54.9334 30.0864 54.086 30.3883 52.7387C30.6902 51.3914 29.8428 50.0544 28.4955 49.7525L27.4021 54.6315ZM36.9633 50.6633C35.5827 50.6542 34.456 51.766 34.4469 53.1467C34.4377 54.5274 35.5496 55.6541 36.9303 55.6632L36.9633 50.6633ZM46.8513 54.8436C48.2126 54.6131 49.1294 53.3227 48.8989 51.9614C48.6684 50.6 47.378 49.6833 46.0167 49.9138L46.8513 54.8436ZM55.5042 47.7354C54.1739 48.105 53.395 49.483 53.7646 50.8133C54.1342 52.1437 55.5123 52.9225 56.8426 52.5529L55.5042 47.7354ZM66.4661 49.574C67.7749 49.1342 68.4793 47.7167 68.0395 46.4079C67.5997 45.0991 66.1821 44.3947 64.8734 44.8345L66.4661 49.574ZM74.2447 41.5125C72.9498 41.9915 72.2882 43.4295 72.7672 44.7245C73.2462 46.0195 74.6842 46.681 75.9792 46.202L74.2447 41.5125ZM85.3278 42.6471C86.6147 42.1468 87.2524 40.698 86.7521 39.4111C86.2518 38.1242 84.803 37.4865 83.5161 37.9868L85.3278 42.6471ZM92.8007 34.3291C91.5178 34.8394 90.8915 36.2931 91.4018 37.5761C91.9121 38.859 93.3658 39.4853 94.6488 38.975L92.8007 34.3291ZM103.942 35.2656C105.224 34.7534 105.848 33.2988 105.336 32.0166C104.824 30.7344 103.369 30.1101 102.087 30.6223L103.942 35.2656ZM111.362 26.9327C110.078 27.4402 109.449 28.8926 109.956 30.1766C110.464 31.4607 111.916 32.0902 113.2 31.5827L111.362 26.9327ZM122.48 27.9541C123.768 27.457 124.409 26.0097 123.912 24.7216C123.415 23.4335 121.968 22.7924 120.68 23.2895L122.48 27.9541ZM130.047 19.7356C128.753 20.2171 128.095 21.6564 128.576 22.9504C129.058 24.2445 130.497 24.9032 131.791 24.4218L130.047 19.7356ZM141.142 21.0257C142.443 20.5654 143.126 19.1371 142.665 17.8353C142.205 16.5336 140.777 15.8515 139.475 16.3117L141.142 21.0257ZM148.971 13.0597C147.66 13.493 146.949 14.907 147.382 16.218C147.816 17.5289 149.23 18.2404 150.541 17.807L148.971 13.0597ZM159.999 14.8089C161.321 14.409 162.068 13.0136 161.668 11.692C161.268 10.3705 159.873 9.62332 158.551 10.0232L159.999 14.8089ZM168.229 7.25205C166.896 7.61092 166.106 8.98267 166.465 10.3159C166.824 11.6492 168.196 12.4391 169.529 12.0802L168.229 7.25205ZM179.13 9.68097C180.476 9.37206 181.316 8.03072 181.007 6.68501C180.698 5.3393 179.357 4.49881 178.011 4.80772L179.13 9.68097ZM187.899 2.76364C186.541 3.01171 185.641 4.31389 185.889 5.67213C186.137 7.03038 187.44 7.93035 188.798 7.68228L187.899 2.76364ZM198.521 6.16954C199.89 5.99563 200.86 4.74427 200.686 3.37456C200.512 2.00484 199.261 1.03545 197.891 1.20936L198.521 6.16954ZM207.995 0.253196C206.617 0.336405 205.567 1.52111 205.65 2.89931C205.734 4.27752 206.918 5.32732 208.296 5.24411L207.995 0.253196ZM218.087 5.03364C219.467 5.06121 220.608 3.96449 220.636 2.58406C220.664 1.20362 219.567 0.0622048 218.186 0.0346329L218.087 5.03364ZM228.381 0.718978C227.009 0.557726 225.767 1.53863 225.606 2.9099C225.445 4.28116 226.425 5.52351 227.797 5.68476L228.381 0.718978ZM237.334 7.35577C238.678 7.67484 240.025 6.8445 240.344 5.50116C240.663 4.15782 239.833 2.81018 238.49 2.49111L237.334 7.35577ZM248.347 5.53325C247.058 5.03605 245.611 5.67718 245.114 6.96527C244.617 8.25335 245.258 9.70061 246.546 10.1978L248.347 5.53325ZM255.222 14.3071C256.421 14.991 257.948 14.5731 258.632 13.3736C259.316 12.1742 258.898 10.6475 257.698 9.96357L255.222 14.3071ZM266.26 15.7681C265.181 14.9071 263.608 15.0841 262.747 16.1635C261.886 17.2428 262.063 18.8158 263.142 19.6768L266.26 15.7681ZM270.081 26.1026C271.026 27.1096 272.608 27.1603 273.615 26.2157C274.622 25.2712 274.672 23.6891 273.728 22.682L270.081 26.1026ZM280.012 30.3682C279.213 29.2422 277.652 28.9771 276.526 29.7761C275.4 30.5751 275.135 32.1357 275.934 33.2617L280.012 30.3682ZM280.757 41.1441C281.396 42.3679 282.906 42.8418 284.13 42.2026C285.354 41.5634 285.828 40.0531 285.189 38.8292L280.757 41.1441ZM289.183 47.9072C288.712 46.6094 287.278 45.9392 285.98 46.4104C284.682 46.8816 284.012 48.3157 284.483 49.6135L289.183 47.9072ZM287.073 58.5097C287.373 59.8574 288.709 60.7069 290.056 60.4069C291.404 60.107 292.254 58.7713 291.954 57.4236L287.073 58.5097ZM293.491 67.2048C293.362 65.8301 292.143 64.8199 290.769 64.9484C289.394 65.077 288.384 66.2956 288.512 67.6703L293.491 67.2048ZM288.803 76.9437C288.762 78.3237 289.847 79.4764 291.227 79.5182C292.607 79.5599 293.759 78.475 293.801 77.0949L288.803 76.9437ZM292.893 86.9474C293.105 85.583 292.17 84.3055 290.806 84.0941C289.441 83.8827 288.164 84.8174 287.952 86.1819L292.893 86.9474ZM285.96 95.24C285.579 96.5669 286.345 97.9519 287.672 98.3334C288.999 98.715 290.384 97.9485 290.766 96.6216L285.96 95.24ZM287.407 105.954C287.96 104.689 287.383 103.215 286.118 102.662C284.853 102.109 283.379 102.686 282.826 103.951L287.407 105.954ZM278.546 112.132C277.82 113.307 278.184 114.847 279.358 115.573C280.533 116.299 282.073 115.936 282.799 114.761L278.546 112.132ZM276.932 122.818C277.829 121.769 277.706 120.19 276.656 119.293C275.607 118.396 274.029 118.519 273.131 119.569L276.932 122.818ZM266.623 126.017C265.564 126.903 265.422 128.479 266.307 129.539C267.193 130.598 268.769 130.74 269.829 129.855L266.623 126.017ZM261.594 135.574C262.795 134.892 263.215 133.366 262.533 132.165C261.851 130.965 260.325 130.545 259.124 131.227L261.594 135.574ZM250.814 134.982C249.509 135.432 248.815 136.855 249.265 138.16C249.716 139.466 251.139 140.159 252.444 139.709L250.814 134.982ZM242.701 142.105C244.066 141.896 245.003 140.62 244.794 139.256C244.586 137.891 243.31 136.954 241.945 137.162L242.701 142.105ZM232.818 137.778C231.437 137.759 230.303 138.863 230.283 140.243C230.264 141.624 231.368 142.758 232.748 142.778L232.818 137.778ZM222.838 141.896C224.201 142.116 225.484 141.189 225.705 139.826C225.925 138.463 224.998 137.18 223.635 136.96L222.838 141.896ZM213.95 134.912C212.601 134.613 211.267 135.465 210.969 136.813C210.671 138.161 211.522 139.496 212.87 139.794L213.95 134.912ZM202.698 137.633C204.051 137.908 205.371 137.035 205.647 135.682C205.922 134.329 205.049 133.009 203.696 132.733L202.698 137.633ZM193.401 130.73C192.044 130.479 190.739 131.376 190.488 132.733C190.236 134.091 191.133 135.395 192.491 135.647L193.401 130.73ZM182.253 133.85C183.615 134.076 184.902 133.154 185.128 131.792C185.353 130.43 184.432 129.143 183.07 128.917L182.253 133.85ZM172.698 127.309C171.332 127.112 170.064 128.06 169.867 129.427C169.67 130.794 170.618 132.061 171.985 132.258L172.698 127.309ZM161.689 130.892C163.059 131.058 164.305 130.081 164.47 128.71C164.636 127.339 163.659 126.094 162.288 125.929L161.689 130.892ZM151.842 124.802C150.468 124.672 149.248 125.681 149.118 127.056C148.988 128.43 149.997 129.65 151.372 129.78L151.842 124.802ZM141.042 128.954C142.42 129.043 143.609 127.999 143.699 126.621C143.788 125.243 142.743 124.054 141.365 123.965L141.042 128.954ZM130.848 123.461C129.468 123.419 128.315 124.504 128.273 125.884C128.232 127.264 129.317 128.417 130.697 128.459L130.848 123.461ZM120.354 128.35C121.735 128.336 122.842 127.205 122.828 125.824C122.813 124.443 121.682 123.336 120.301 123.35L120.354 128.35ZM109.742 123.714C108.364 123.797 107.313 124.981 107.396 126.359C107.479 127.737 108.663 128.788 110.041 128.705L109.742 123.714ZM99.7979 129.624C101.168 129.457 102.144 128.21 101.976 126.84C101.809 125.469 100.562 124.494 99.1918 124.661L99.7979 129.624ZM88.6994 126.347C87.3464 126.622 86.4725 127.942 86.7476 129.295C87.0226 130.648 88.3425 131.522 89.6955 131.247L88.6994 126.347ZM79.8252 133.773C81.1418 133.357 81.8721 131.952 81.4563 130.636C81.0405 129.319 79.6361 128.589 78.3195 129.005L79.8252 133.773ZM68.2792 132.948C67.036 133.548 66.5151 135.043 67.1158 136.286C67.7165 137.53 69.2113 138.05 70.4545 137.45L68.2792 132.948ZM61.9612 142.593C63.0604 141.758 63.2741 140.189 62.4386 139.09C61.603 137.991 60.0346 137.777 58.9354 138.613L61.9612 142.593ZM51.1546 145.801C50.1883 146.787 50.2045 148.37 51.1908 149.336C52.177 150.302 53.7599 150.286 54.7261 149.3L51.1546 145.801ZM47.9022 156.648C48.8131 155.611 48.7104 154.031 47.6729 153.12C46.6353 152.209 45.0557 152.312 44.1448 153.35L47.9022 156.648ZM37.5877 161.272C36.7392 162.362 36.9345 163.933 38.0237 164.781C39.113 165.629 40.6838 165.434 41.5323 164.345L37.5877 161.272ZM35.6319 172.416C36.412 171.277 36.1208 169.721 34.9816 168.941C33.8423 168.161 32.2864 168.452 31.5064 169.591L35.6319 172.416ZM25.9469 178.288C25.2409 179.475 25.6305 181.009 26.8171 181.715C28.0036 182.421 29.5379 182.032 30.2439 180.845L25.9469 178.288ZM25.4301 189.571C26.0569 188.34 25.5677 186.835 24.3375 186.208C23.1072 185.581 21.6018 186.07 20.975 187.301L25.4301 189.571ZM16.6041 196.642C16.0615 197.912 16.651 199.381 17.9206 199.923C19.1903 200.466 20.6594 199.876 21.2019 198.607L16.6041 196.642ZM17.5987 207.909C18.0528 206.605 17.3638 205.18 16.0599 204.726C14.756 204.272 13.3309 204.961 12.8768 206.265L17.5987 207.909ZM9.82349 216.121C9.46101 217.454 10.2472 218.828 11.5795 219.19C12.9117 219.553 14.2856 218.766 14.6481 217.434L9.82349 216.121ZM12.3685 227.13C12.6377 225.775 11.7582 224.459 10.404 224.19C9.04979 223.921 7.73373 224.8 7.46449 226.155L12.3685 227.13ZM5.80062 236.352C5.62519 237.722 6.59319 238.974 7.96271 239.15C9.33224 239.325 10.5847 238.357 10.7601 236.987L5.80062 236.352ZM9.82777 246.919C9.91072 245.54 8.86069 244.356 7.48247 244.273C6.10425 244.19 4.91975 245.24 4.8368 246.618L9.82777 246.919ZM4.55521 256.903C4.56208 258.284 5.68692 259.398 7.06761 259.391C8.44831 259.384 9.56201 258.259 9.55515 256.878L4.55521 256.903ZM9.9191 266.852C9.82599 265.475 8.63376 264.434 7.2562 264.527C5.87863 264.62 4.83737 265.812 4.93049 267.19L9.9191 266.852ZM5.93242 277.432C6.10731 278.802 7.35936 279.77 8.72895 279.595C10.0985 279.42 11.067 278.168 10.8921 276.799L5.93242 277.432ZM12.4405 286.681C12.1889 285.324 10.8844 284.427 9.52681 284.679C8.16921 284.93 7.27262 286.235 7.52422 287.592L12.4405 286.681ZM9.66535 297.641C9.98827 298.983 11.3383 299.81 12.6807 299.487C14.0231 299.164 14.8496 297.814 14.5267 296.472L9.66535 297.641ZM17.1118 306.148C16.723 304.823 15.3338 304.065 14.0089 304.453C12.6841 304.842 11.9253 306.231 12.3141 307.556L17.1118 306.148ZM15.43 317.325C15.8793 318.631 17.302 319.325 18.6075 318.875C19.9131 318.426 20.6071 317.003 20.1577 315.698L15.43 317.325ZM23.6291 325.114C23.1242 323.829 21.6732 323.197 20.3881 323.702C19.103 324.206 18.4706 325.658 18.9755 326.943L23.6291 325.114ZM22.9174 336.41C23.4732 337.674 24.9483 338.248 26.2122 337.692C27.4762 337.136 28.0503 335.661 27.4945 334.397L22.9174 336.41ZM31.7271 343.552C31.1248 342.31 29.6294 341.791 28.3869 342.393C27.1445 342.995 26.6256 344.491 27.2278 345.733L31.7271 343.552ZM31.8459 354.853C32.4905 356.074 34.0028 356.541 35.2239 355.896C36.4449 355.252 36.9122 353.739 36.2676 352.518L31.8459 354.853ZM41.0885 361.305C40.4054 360.105 38.8789 359.686 37.679 360.369C36.4791 361.052 36.0602 362.579 36.7433 363.778L41.0885 361.305ZM0.526044 4.63953C0.31199 6.10937 0.14572 7.68734 0.0408566 9.3444L5.03087 9.66018C5.12742 8.13463 5.27992 6.69178 5.47385 5.36009L0.526044 4.63953ZM0.1411 18.7816C0.40086 21.8439 0.897415 25.0055 1.70124 28.1323L6.54378 26.8873C5.8177 24.063 5.36247 21.1796 5.12321 18.359L0.1411 18.7816ZM5.03143 37.1285C6.47848 39.9987 8.29407 42.7216 10.5487 45.1558L14.217 41.7582C12.3175 39.7074 10.7589 37.3823 9.49609 34.8776L5.03143 37.1285ZM18.2811 51.2186C20.975 52.7096 24.0066 53.8706 27.4021 54.6315L28.4955 49.7525C25.5443 49.0912 22.9624 48.0948 20.7024 46.844L18.2811 51.2186ZM36.9303 55.6632C38.4616 55.6733 40.0475 55.6176 41.6897 55.4926L41.3103 50.5071C39.7987 50.6221 38.3505 50.6725 36.9633 50.6633L36.9303 55.6632ZM41.6897 55.4926C43.3367 55.3673 45.06 55.1469 46.8513 54.8436L46.0167 49.9138C44.3502 50.1959 42.7806 50.3952 41.3103 50.5071L41.6897 55.4926ZM56.8426 52.5529C59.9017 51.7031 63.1168 50.6996 66.4661 49.574L64.8734 44.8345C61.5868 45.939 58.4586 46.9146 55.5042 47.7354L56.8426 52.5529ZM75.9792 46.202C79.0104 45.0809 82.1308 43.8899 85.3278 42.6471L83.5161 37.9868C80.337 39.2227 77.2433 40.4034 74.2447 41.5125L75.9792 46.202ZM94.6488 38.975C97.6919 37.7645 100.795 36.5228 103.942 35.2656L102.087 30.6223C98.9356 31.8812 95.8394 33.1204 92.8007 34.3291L94.6488 38.975ZM113.2 31.5827C116.26 30.3732 119.356 29.1601 122.48 27.9541L120.68 23.2895C117.54 24.5015 114.431 25.7197 111.362 26.9327L113.2 31.5827ZM131.791 24.4218C134.89 23.2689 138.009 22.1335 141.142 21.0257L139.475 16.3117C136.313 17.4297 133.168 18.5745 130.047 19.7356L131.791 24.4218ZM150.541 17.807C153.689 16.7663 156.844 15.7636 159.999 14.8089L158.551 10.0232C155.352 10.9913 152.156 12.007 148.971 13.0597L150.541 17.807ZM169.529 12.0802C172.739 11.216 175.942 10.4127 179.13 9.68097L178.011 4.80772C174.758 5.55458 171.495 6.37314 168.229 7.25205L169.529 12.0802ZM188.798 7.68228C192.066 7.08533 195.31 6.57723 198.521 6.16954L197.891 1.20936C194.583 1.6294 191.249 2.15181 187.899 2.76364L188.798 7.68228ZM208.296 5.24411C211.61 5.04405 214.876 4.96951 218.087 5.03364L218.186 0.0346329C214.831 -0.0323782 211.431 0.0457573 207.995 0.253196L208.296 5.24411ZM227.797 5.68476C231.053 6.06768 234.235 6.61973 237.334 7.35577L238.49 2.49111C235.189 1.70714 231.815 1.12284 228.381 0.718978L227.797 5.68476ZM246.546 10.1978C249.537 11.3522 252.432 12.7163 255.222 14.3071L257.698 9.96357C254.683 8.24425 251.561 6.77405 248.347 5.53325L246.546 10.1978ZM263.142 19.6768C264.386 20.6691 265.604 21.7191 266.796 22.829L270.204 19.1707C268.919 17.9739 267.604 16.8404 266.26 15.7681L263.142 19.6768ZM266.796 22.829C267.938 23.893 269.033 24.985 270.081 26.1026L273.728 22.682C272.603 21.4826 271.429 20.3114 270.204 19.1707L266.796 22.829ZM275.934 33.2617C277.737 35.8032 279.343 38.4378 280.757 41.1441L285.189 38.8292C283.672 35.9257 281.948 33.0975 280.012 30.3682L275.934 33.2617ZM284.483 49.6135C285.543 52.5331 286.405 55.5064 287.073 58.5097L291.954 57.4236C291.239 54.2142 290.318 51.0335 289.183 47.9072L284.483 49.6135ZM288.512 67.6703C288.802 70.7646 288.897 73.8642 288.803 76.9437L293.801 77.0949C293.9 73.8116 293.799 70.506 293.491 67.2048L288.512 67.6703ZM287.952 86.1819C287.475 89.2596 286.809 92.288 285.96 95.24L290.766 96.6216C291.673 93.4651 292.385 90.2309 292.893 86.9474L287.952 86.1819ZM282.826 103.951C281.581 106.799 280.151 109.536 278.546 112.132L282.799 114.761C284.532 111.958 286.07 109.012 287.407 105.954L282.826 103.951ZM273.131 119.569C271.134 121.905 268.961 124.064 266.623 126.017L269.829 129.855C272.389 127.716 274.759 125.359 276.932 122.818L273.131 119.569ZM259.124 131.227C256.508 132.714 253.735 133.975 250.814 134.982L252.444 139.709C255.661 138.6 258.714 137.211 261.594 135.574L259.124 131.227ZM241.945 137.162C239.026 137.609 235.982 137.822 232.818 137.778L232.748 142.778C236.183 142.826 239.503 142.594 242.701 142.105L241.945 137.162ZM223.635 136.96C222.133 136.717 220.608 136.419 219.06 136.063L217.941 140.937C219.593 141.316 221.226 141.635 222.838 141.896L223.635 136.96ZM219.06 136.063C217.364 135.674 215.66 135.29 213.95 134.912L212.87 139.794C214.567 140.169 216.258 140.55 217.941 140.937L219.06 136.063ZM203.696 132.733C200.28 132.037 196.845 131.368 193.401 130.73L192.491 135.647C195.904 136.279 199.31 136.942 202.698 137.633L203.696 132.733ZM183.07 128.917C179.611 128.345 176.151 127.807 172.698 127.309L171.985 132.258C175.401 132.751 178.827 133.283 182.253 133.85L183.07 128.917ZM162.288 125.929C158.786 125.506 155.301 125.129 151.842 124.802L151.372 129.78C154.786 130.102 158.228 130.475 161.689 130.892L162.288 125.929ZM141.365 123.965C137.818 123.735 134.309 123.565 130.848 123.461L130.697 128.459C134.097 128.561 137.549 128.728 141.042 128.954L141.365 123.965ZM120.301 123.35C116.71 123.388 113.186 123.507 109.742 123.714L110.041 128.705C113.397 128.504 116.839 128.387 120.354 128.35L120.301 123.35ZM99.1918 124.661C95.5761 125.103 92.0723 125.662 88.6994 126.347L89.6955 131.247C92.9264 130.59 96.2993 130.052 99.7979 129.624L99.1918 124.661ZM78.3195 129.005C74.7682 130.126 71.4105 131.435 68.2792 132.948L70.4545 137.45C73.3433 136.054 76.474 134.831 79.8252 133.773L78.3195 129.005ZM58.9354 138.613C57.4548 139.738 56.0584 140.937 54.7532 142.212L58.2468 145.788C59.3974 144.665 60.6365 143.6 61.9612 142.593L58.9354 138.613ZM54.7532 142.212C53.668 143.271 52.4599 144.468 51.1546 145.801L54.7261 149.3C55.9996 148 57.1807 146.83 58.2468 145.788L54.7532 142.212ZM44.1448 153.35C42.0433 155.743 39.8374 158.384 37.5877 161.272L41.5323 164.345C43.7164 161.541 45.8591 158.975 47.9022 156.648L44.1448 153.35ZM31.5064 169.591C29.6357 172.323 27.7714 175.222 25.9469 178.288L30.2439 180.845C32.0112 177.875 33.8179 175.065 35.6319 172.416L31.5064 169.591ZM20.975 187.301C19.4551 190.284 17.9905 193.398 16.6041 196.642L21.2019 198.607C22.5425 195.469 23.9592 192.457 25.4301 189.571L20.975 187.301ZM12.8768 206.265C11.7704 209.442 10.7468 212.728 9.82349 216.121L14.6481 217.434C15.5403 214.155 16.5294 210.98 17.5987 207.909L12.8768 206.265ZM7.46449 226.155C6.80673 229.463 6.24766 232.862 5.80062 236.352L10.7601 236.987C11.1924 233.613 11.7328 230.327 12.3685 227.13L7.46449 226.155ZM4.8368 246.618C4.63502 249.971 4.53778 253.4 4.55521 256.903L9.55515 256.878C9.53826 253.483 9.63249 250.164 9.82777 246.919L4.8368 246.618ZM4.93049 267.19C5.15699 270.541 5.48837 273.955 5.93242 277.432L10.8921 276.799C10.4606 273.419 10.1389 270.104 9.9191 266.852L4.93049 267.19ZM7.52422 287.592C8.13519 290.889 8.84693 294.239 9.66535 297.641L14.5267 296.472C13.7286 293.154 13.0353 289.891 12.4405 286.681L7.52422 287.592ZM12.3141 307.556C13.2568 310.768 14.2939 314.025 15.43 317.325L20.1577 315.698C19.0463 312.469 18.0325 309.286 17.1118 306.148L12.3141 307.556ZM18.9755 326.943C20.2006 330.061 21.5134 333.216 22.9174 336.41L27.4945 334.397C26.1168 331.264 24.8296 328.17 23.6291 325.114L18.9755 326.943ZM27.2278 345.733C28.686 348.741 30.2244 351.781 31.8459 354.853L36.2676 352.518C34.6723 349.496 33.1598 346.508 31.7271 343.552L27.2278 345.733ZM36.7433 363.778C37.5916 365.268 38.4593 366.766 39.3467 368.27L43.6533 365.73C42.7788 364.247 41.924 362.772 41.0885 361.305L36.7433 363.778Z" fill="white"/>
<path d="M5.47385 5.36009C5.67283 3.99379 4.72652 2.72488 3.36023 2.52591C1.99393 2.32693 0.72502 3.27323 0.526044 4.63953L5.47385 5.36009ZM41.5 52.9998L41.3103 50.5071L41.5 52.9998ZM268.5 20.9998L266.796 22.829L268.5 20.9998ZM218.5 138.5L217.941 140.937L218.5 138.5ZM56.5 144L54.7532 142.212L56.5 144ZM40.8755 369.421C42.2124 369.766 43.5758 368.961 43.9207 367.625L49.5414 345.838C49.8863 344.501 49.0821 343.138 47.7451 342.793C46.4082 342.448 45.0448 343.252 44.6999 344.589L39.7038 363.955L20.3379 358.959C19.0009 358.614 17.6375 359.418 17.2926 360.755C16.9477 362.092 17.7519 363.455 19.0888 363.8L40.8755 369.421ZM0.0408566 9.3444C-0.0463448 10.7224 1.00002 11.9101 2.37797 11.9973C3.75593 12.0845 4.94367 11.0381 5.03087 9.66018L0.0408566 9.3444ZM5.12321 18.359C5.00651 16.9832 3.79662 15.9625 2.42085 16.0792C1.04508 16.1959 0.0244009 17.4058 0.1411 18.7816L5.12321 18.359ZM1.70124 28.1323C2.04502 29.4695 3.40774 30.2748 4.74497 29.9311C6.0822 29.5873 6.88756 28.2246 6.54378 26.8873L1.70124 28.1323ZM9.49609 34.8776C8.87451 33.6447 7.37117 33.1491 6.13829 33.7707C4.9054 34.3923 4.40985 35.8956 5.03143 37.1285L9.49609 34.8776ZM10.5487 45.1558C11.487 46.1688 13.0687 46.2294 14.0817 45.2912C15.0946 44.3529 15.1552 42.7712 14.217 41.7582L10.5487 45.1558ZM20.7024 46.844C19.4944 46.1753 17.9731 46.6126 17.3044 47.8206C16.6358 49.0287 17.0731 50.55 18.2811 51.2186L20.7024 46.844ZM27.4021 54.6315C28.7494 54.9334 30.0864 54.086 30.3883 52.7387C30.6902 51.3914 29.8428 50.0544 28.4955 49.7525L27.4021 54.6315ZM36.9633 50.6633C35.5827 50.6542 34.456 51.766 34.4469 53.1467C34.4377 54.5274 35.5496 55.6541 36.9303 55.6632L36.9633 50.6633ZM46.8513 54.8436C48.2126 54.6131 49.1294 53.3227 48.8989 51.9614C48.6684 50.6 47.378 49.6833 46.0167 49.9138L46.8513 54.8436ZM55.5042 47.7354C54.1739 48.105 53.395 49.483 53.7646 50.8133C54.1342 52.1437 55.5123 52.9225 56.8426 52.5529L55.5042 47.7354ZM66.4661 49.574C67.7749 49.1342 68.4793 47.7167 68.0395 46.4079C67.5997 45.0991 66.1821 44.3947 64.8734 44.8345L66.4661 49.574ZM74.2447 41.5125C72.9498 41.9915 72.2882 43.4295 72.7672 44.7245C73.2462 46.0195 74.6842 46.681 75.9792 46.202L74.2447 41.5125ZM85.3278 42.6471C86.6147 42.1468 87.2524 40.698 86.7521 39.4111C86.2518 38.1242 84.803 37.4865 83.5161 37.9868L85.3278 42.6471ZM92.8007 34.3291C91.5178 34.8394 90.8915 36.2931 91.4018 37.5761C91.9121 38.859 93.3658 39.4853 94.6488 38.975L92.8007 34.3291ZM103.942 35.2656C105.224 34.7534 105.848 33.2988 105.336 32.0166C104.824 30.7344 103.369 30.1101 102.087 30.6223L103.942 35.2656ZM111.362 26.9327C110.078 27.4402 109.449 28.8926 109.956 30.1766C110.464 31.4607 111.916 32.0902 113.2 31.5827L111.362 26.9327ZM122.48 27.9541C123.768 27.457 124.409 26.0097 123.912 24.7216C123.415 23.4335 121.968 22.7924 120.68 23.2895L122.48 27.9541ZM130.047 19.7356C128.753 20.2171 128.095 21.6564 128.576 22.9504C129.058 24.2445 130.497 24.9032 131.791 24.4218L130.047 19.7356ZM141.142 21.0257C142.443 20.5654 143.126 19.1371 142.665 17.8353C142.205 16.5336 140.777 15.8515 139.475 16.3117L141.142 21.0257ZM148.971 13.0597C147.66 13.493 146.949 14.907 147.382 16.218C147.816 17.5289 149.23 18.2404 150.541 17.807L148.971 13.0597ZM159.999 14.8089C161.321 14.409 162.068 13.0136 161.668 11.692C161.268 10.3705 159.873 9.62332 158.551 10.0232L159.999 14.8089ZM168.229 7.25205C166.896 7.61092 166.106 8.98267 166.465 10.3159C166.824 11.6492 168.196 12.4391 169.529 12.0802L168.229 7.25205ZM179.13 9.68097C180.476 9.37206 181.316 8.03072 181.007 6.68501C180.698 5.3393 179.357 4.49881 178.011 4.80772L179.13 9.68097ZM187.899 2.76364C186.541 3.01171 185.641 4.31389 185.889 5.67213C186.137 7.03038 187.44 7.93035 188.798 7.68228L187.899 2.76364ZM198.521 6.16954C199.89 5.99563 200.86 4.74427 200.686 3.37456C200.512 2.00484 199.261 1.03545 197.891 1.20936L198.521 6.16954ZM207.995 0.253196C206.617 0.336405 205.567 1.52111 205.65 2.89931C205.734 4.27752 206.918 5.32732 208.296 5.24411L207.995 0.253196ZM218.087 5.03364C219.467 5.06121 220.608 3.96449 220.636 2.58406C220.664 1.20362 219.567 0.0622048 218.186 0.0346329L218.087 5.03364ZM228.381 0.718978C227.009 0.557726 225.767 1.53863 225.606 2.9099C225.445 4.28116 226.425 5.52351 227.797 5.68476L228.381 0.718978ZM237.334 7.35577C238.678 7.67484 240.025 6.8445 240.344 5.50116C240.663 4.15782 239.833 2.81018 238.49 2.49111L237.334 7.35577ZM248.347 5.53325C247.058 5.03605 245.611 5.67718 245.114 6.96527C244.617 8.25335 245.258 9.70061 246.546 10.1978L248.347 5.53325ZM255.222 14.3071C256.421 14.991 257.948 14.5731 258.632 13.3736C259.316 12.1742 258.898 10.6475 257.698 9.96357L255.222 14.3071ZM266.26 15.7681C265.181 14.9071 263.608 15.0841 262.747 16.1635C261.886 17.2428 262.063 18.8158 263.142 19.6768L266.26 15.7681ZM270.081 26.1026C271.026 27.1096 272.608 27.1603 273.615 26.2157C274.622 25.2712 274.672 23.6891 273.728 22.682L270.081 26.1026ZM280.012 30.3682C279.213 29.2422 277.652 28.9771 276.526 29.7761C275.4 30.5751 275.135 32.1357 275.934 33.2617L280.012 30.3682ZM280.757 41.1441C281.396 42.3679 282.906 42.8418 284.13 42.2026C285.354 41.5634 285.828 40.0531 285.189 38.8292L280.757 41.1441ZM289.183 47.9072C288.712 46.6094 287.278 45.9392 285.98 46.4104C284.682 46.8816 284.012 48.3157 284.483 49.6135L289.183 47.9072ZM287.073 58.5097C287.373 59.8574 288.709 60.7069 290.056 60.4069C291.404 60.107 292.254 58.7713 291.954 57.4236L287.073 58.5097ZM293.491 67.2048C293.362 65.8301 292.143 64.8199 290.769 64.9484C289.394 65.077 288.384 66.2956 288.512 67.6703L293.491 67.2048ZM288.803 76.9437C288.762 78.3237 289.847 79.4764 291.227 79.5182C292.607 79.5599 293.759 78.475 293.801 77.0949L288.803 76.9437ZM292.893 86.9474C293.105 85.583 292.17 84.3055 290.806 84.0941C289.441 83.8827 288.164 84.8174 287.952 86.1819L292.893 86.9474ZM285.96 95.24C285.579 96.5669 286.345 97.9519 287.672 98.3334C288.999 98.715 290.384 97.9485 290.766 96.6216L285.96 95.24ZM287.407 105.954C287.96 104.689 287.383 103.215 286.118 102.662C284.853 102.109 283.379 102.686 282.826 103.951L287.407 105.954ZM278.546 112.132C277.82 113.307 278.184 114.847 279.358 115.573C280.533 116.299 282.073 115.936 282.799 114.761L278.546 112.132ZM276.932 122.818C277.829 121.769 277.706 120.19 276.656 119.293C275.607 118.396 274.029 118.519 273.131 119.569L276.932 122.818ZM266.623 126.017C265.564 126.903 265.422 128.479 266.307 129.539C267.193 130.598 268.769 130.74 269.829 129.855L266.623 126.017ZM261.594 135.574C262.795 134.892 263.215 133.366 262.533 132.165C261.851 130.965 260.325 130.545 259.124 131.227L261.594 135.574ZM250.814 134.982C249.509 135.432 248.815 136.855 249.265 138.16C249.716 139.466 251.139 140.159 252.444 139.709L250.814 134.982ZM242.701 142.105C244.066 141.896 245.003 140.62 244.794 139.256C244.586 137.891 243.31 136.954 241.945 137.162L242.701 142.105ZM232.818 137.778C231.437 137.759 230.303 138.863 230.283 140.243C230.264 141.624 231.368 142.758 232.748 142.778L232.818 137.778ZM222.838 141.896C224.201 142.116 225.484 141.189 225.705 139.826C225.925 138.463 224.998 137.18 223.635 136.96L222.838 141.896ZM213.95 134.912C212.601 134.613 211.267 135.465 210.969 136.813C210.671 138.161 211.522 139.496 212.87 139.794L213.95 134.912ZM202.698 137.633C204.051 137.908 205.371 137.035 205.647 135.682C205.922 134.329 205.049 133.009 203.696 132.733L202.698 137.633ZM193.401 130.73C192.044 130.479 190.739 131.376 190.488 132.733C190.236 134.091 191.133 135.395 192.491 135.647L193.401 130.73ZM182.253 133.85C183.615 134.076 184.902 133.154 185.128 131.792C185.353 130.43 184.432 129.143 183.07 128.917L182.253 133.85ZM172.698 127.309C171.332 127.112 170.064 128.06 169.867 129.427C169.67 130.794 170.618 132.061 171.985 132.258L172.698 127.309ZM161.689 130.892C163.059 131.058 164.305 130.081 164.47 128.71C164.636 127.339 163.659 126.094 162.288 125.929L161.689 130.892ZM151.842 124.802C150.468 124.672 149.248 125.681 149.118 127.056C148.988 128.43 149.997 129.65 151.372 129.78L151.842 124.802ZM141.042 128.954C142.42 129.043 143.609 127.999 143.699 126.621C143.788 125.243 142.743 124.054 141.365 123.965L141.042 128.954ZM130.848 123.461C129.468 123.419 128.315 124.504 128.273 125.884C128.232 127.264 129.317 128.417 130.697 128.459L130.848 123.461ZM120.354 128.35C121.735 128.336 122.842 127.205 122.828 125.824C122.813 124.443 121.682 123.336 120.301 123.35L120.354 128.35ZM109.742 123.714C108.364 123.797 107.313 124.981 107.396 126.359C107.479 127.737 108.663 128.788 110.041 128.705L109.742 123.714ZM99.7979 129.624C101.168 129.457 102.144 128.21 101.976 126.84C101.809 125.469 100.562 124.494 99.1918 124.661L99.7979 129.624ZM88.6994 126.347C87.3464 126.622 86.4725 127.942 86.7476 129.295C87.0226 130.648 88.3425 131.522 89.6955 131.247L88.6994 126.347ZM79.8252 133.773C81.1418 133.357 81.8721 131.952 81.4563 130.636C81.0405 129.319 79.6361 128.589 78.3195 129.005L79.8252 133.773ZM68.2792 132.948C67.036 133.548 66.5151 135.043 67.1158 136.286C67.7165 137.53 69.2113 138.05 70.4545 137.45L68.2792 132.948ZM61.9612 142.593C63.0604 141.758 63.2741 140.189 62.4386 139.09C61.603 137.991 60.0346 137.777 58.9354 138.613L61.9612 142.593ZM51.1546 145.801C50.1883 146.787 50.2045 148.37 51.1908 149.336C52.177 150.302 53.7599 150.286 54.7261 149.3L51.1546 145.801ZM47.9022 156.648C48.8131 155.611 48.7104 154.031 47.6729 153.12C46.6353 152.209 45.0557 152.312 44.1448 153.35L47.9022 156.648ZM37.5877 161.272C36.7392 162.362 36.9345 163.933 38.0237 164.781C39.113 165.629 40.6838 165.434 41.5323 164.345L37.5877 161.272ZM35.6319 172.416C36.412 171.277 36.1208 169.721 34.9816 168.941C33.8423 168.161 32.2864 168.452 31.5064 169.591L35.6319 172.416ZM25.9469 178.288C25.2409 179.475 25.6305 181.009 26.8171 181.715C28.0036 182.421 29.5379 182.032 30.2439 180.845L25.9469 178.288ZM25.4301 189.571C26.0569 188.34 25.5677 186.835 24.3375 186.208C23.1072 185.581 21.6018 186.07 20.975 187.301L25.4301 189.571ZM16.6041 196.642C16.0615 197.912 16.651 199.381 17.9206 199.923C19.1903 200.466 20.6594 199.876 21.2019 198.607L16.6041 196.642ZM17.5987 207.909C18.0528 206.605 17.3638 205.18 16.0599 204.726C14.756 204.272 13.3309 204.961 12.8768 206.265L17.5987 207.909ZM9.82349 216.121C9.46101 217.454 10.2472 218.828 11.5795 219.19C12.9117 219.553 14.2856 218.766 14.6481 217.434L9.82349 216.121ZM12.3685 227.13C12.6377 225.775 11.7582 224.459 10.404 224.19C9.04979 223.921 7.73373 224.8 7.46449 226.155L12.3685 227.13ZM5.80062 236.352C5.62519 237.722 6.59319 238.974 7.96271 239.15C9.33224 239.325 10.5847 238.357 10.7601 236.987L5.80062 236.352ZM9.82777 246.919C9.91072 245.54 8.86069 244.356 7.48247 244.273C6.10425 244.19 4.91975 245.24 4.8368 246.618L9.82777 246.919ZM4.55521 256.903C4.56208 258.284 5.68692 259.398 7.06761 259.391C8.44831 259.384 9.56201 258.259 9.55515 256.878L4.55521 256.903ZM9.9191 266.852C9.82599 265.475 8.63376 264.434 7.2562 264.527C5.87863 264.62 4.83737 265.812 4.93049 267.19L9.9191 266.852ZM5.93242 277.432C6.10731 278.802 7.35936 279.77 8.72895 279.595C10.0985 279.42 11.067 278.168 10.8921 276.799L5.93242 277.432ZM12.4405 286.681C12.1889 285.324 10.8844 284.427 9.52681 284.679C8.16921 284.93 7.27262 286.235 7.52422 287.592L12.4405 286.681ZM9.66535 297.641C9.98827 298.983 11.3383 299.81 12.6807 299.487C14.0231 299.164 14.8496 297.814 14.5267 296.472L9.66535 297.641ZM17.1118 306.148C16.723 304.823 15.3338 304.065 14.0089 304.453C12.6841 304.842 11.9253 306.231 12.3141 307.556L17.1118 306.148ZM15.43 317.325C15.8793 318.631 17.302 319.325 18.6075 318.875C19.9131 318.426 20.6071 317.003 20.1577 315.698L15.43 317.325ZM23.6291 325.114C23.1242 323.829 21.6732 323.197 20.3881 323.702C19.103 324.206 18.4706 325.658 18.9755 326.943L23.6291 325.114ZM22.9174 336.41C23.4732 337.674 24.9483 338.248 26.2122 337.692C27.4762 337.136 28.0503 335.661 27.4945 334.397L22.9174 336.41ZM31.7271 343.552C31.1248 342.31 29.6294 341.791 28.3869 342.393C27.1445 342.995 26.6256 344.491 27.2278 345.733L31.7271 343.552ZM31.8459 354.853C32.4905 356.074 34.0028 356.541 35.2239 355.896C36.4449 355.252 36.9122 353.739 36.2676 352.518L31.8459 354.853ZM41.0885 361.305C40.4054 360.105 38.8789 359.686 37.679 360.369C36.4791 361.052 36.0602 362.579 36.7433 363.778L41.0885 361.305ZM0.526044 4.63953C0.31199 6.10937 0.14572 7.68734 0.0408566 9.3444L5.03087 9.66018C5.12742 8.13463 5.27992 6.69178 5.47385 5.36009L0.526044 4.63953ZM0.1411 18.7816C0.40086 21.8439 0.897415 25.0055 1.70124 28.1323L6.54378 26.8873C5.8177 24.063 5.36247 21.1796 5.12321 18.359L0.1411 18.7816ZM5.03143 37.1285C6.47848 39.9987 8.29407 42.7216 10.5487 45.1558L14.217 41.7582C12.3175 39.7074 10.7589 37.3823 9.49609 34.8776L5.03143 37.1285ZM18.2811 51.2186C20.975 52.7096 24.0066 53.8706 27.4021 54.6315L28.4955 49.7525C25.5443 49.0912 22.9624 48.0948 20.7024 46.844L18.2811 51.2186ZM36.9303 55.6632C38.4616 55.6733 40.0475 55.6176 41.6897 55.4926L41.3103 50.5071C39.7987 50.6221 38.3505 50.6725 36.9633 50.6633L36.9303 55.6632ZM41.6897 55.4926C43.3367 55.3673 45.06 55.1469 46.8513 54.8436L46.0167 49.9138C44.3502 50.1959 42.7806 50.3952 41.3103 50.5071L41.6897 55.4926ZM56.8426 52.5529C59.9017 51.7031 63.1168 50.6996 66.4661 49.574L64.8734 44.8345C61.5868 45.939 58.4586 46.9146 55.5042 47.7354L56.8426 52.5529ZM75.9792 46.202C79.0104 45.0809 82.1308 43.8899 85.3278 42.6471L83.5161 37.9868C80.337 39.2227 77.2433 40.4034 74.2447 41.5125L75.9792 46.202ZM94.6488 38.975C97.6919 37.7645 100.795 36.5228 103.942 35.2656L102.087 30.6223C98.9356 31.8812 95.8394 33.1204 92.8007 34.3291L94.6488 38.975ZM113.2 31.5827C116.26 30.3732 119.356 29.1601 122.48 27.9541L120.68 23.2895C117.54 24.5015 114.431 25.7197 111.362 26.9327L113.2 31.5827ZM131.791 24.4218C134.89 23.2689 138.009 22.1335 141.142 21.0257L139.475 16.3117C136.313 17.4297 133.168 18.5745 130.047 19.7356L131.791 24.4218ZM150.541 17.807C153.689 16.7663 156.844 15.7636 159.999 14.8089L158.551 10.0232C155.352 10.9913 152.156 12.007 148.971 13.0597L150.541 17.807ZM169.529 12.0802C172.739 11.216 175.942 10.4127 179.13 9.68097L178.011 4.80772C174.758 5.55458 171.495 6.37314 168.229 7.25205L169.529 12.0802ZM188.798 7.68228C192.066 7.08533 195.31 6.57723 198.521 6.16954L197.891 1.20936C194.583 1.6294 191.249 2.15181 187.899 2.76364L188.798 7.68228ZM208.296 5.24411C211.61 5.04405 214.876 4.96951 218.087 5.03364L218.186 0.0346329C214.831 -0.0323782 211.431 0.0457573 207.995 0.253196L208.296 5.24411ZM227.797 5.68476C231.053 6.06768 234.235 6.61973 237.334 7.35577L238.49 2.49111C235.189 1.70714 231.815 1.12284 228.381 0.718978L227.797 5.68476ZM246.546 10.1978C249.537 11.3522 252.432 12.7163 255.222 14.3071L257.698 9.96357C254.683 8.24425 251.561 6.77405 248.347 5.53325L246.546 10.1978ZM263.142 19.6768C264.386 20.6691 265.604 21.7191 266.796 22.829L270.204 19.1707C268.919 17.9739 267.604 16.8404 266.26 15.7681L263.142 19.6768ZM266.796 22.829C267.938 23.893 269.033 24.985 270.081 26.1026L273.728 22.682C272.603 21.4826 271.429 20.3114 270.204 19.1707L266.796 22.829ZM275.934 33.2617C277.737 35.8032 279.343 38.4378 280.757 41.1441L285.189 38.8292C283.672 35.9257 281.948 33.0975 280.012 30.3682L275.934 33.2617ZM284.483 49.6135C285.543 52.5331 286.405 55.5064 287.073 58.5097L291.954 57.4236C291.239 54.2142 290.318 51.0335 289.183 47.9072L284.483 49.6135ZM288.512 67.6703C288.802 70.7646 288.897 73.8642 288.803 76.9437L293.801 77.0949C293.9 73.8116 293.799 70.506 293.491 67.2048L288.512 67.6703ZM287.952 86.1819C287.475 89.2596 286.809 92.288 285.96 95.24L290.766 96.6216C291.673 93.4651 292.385 90.2309 292.893 86.9474L287.952 86.1819ZM282.826 103.951C281.581 106.799 280.151 109.536 278.546 112.132L282.799 114.761C284.532 111.958 286.07 109.012 287.407 105.954L282.826 103.951ZM273.131 119.569C271.134 121.905 268.961 124.064 266.623 126.017L269.829 129.855C272.389 127.716 274.759 125.359 276.932 122.818L273.131 119.569ZM259.124 131.227C256.508 132.714 253.735 133.975 250.814 134.982L252.444 139.709C255.661 138.6 258.714 137.211 261.594 135.574L259.124 131.227ZM241.945 137.162C239.026 137.609 235.982 137.822 232.818 137.778L232.748 142.778C236.183 142.826 239.503 142.594 242.701 142.105L241.945 137.162ZM223.635 136.96C222.133 136.717 220.608 136.419 219.06 136.063L217.941 140.937C219.593 141.316 221.226 141.635 222.838 141.896L223.635 136.96ZM219.06 136.063C217.364 135.674 215.66 135.29 213.95 134.912L212.87 139.794C214.567 140.169 216.258 140.55 217.941 140.937L219.06 136.063ZM203.696 132.733C200.28 132.037 196.845 131.368 193.401 130.73L192.491 135.647C195.904 136.279 199.31 136.942 202.698 137.633L203.696 132.733ZM183.07 128.917C179.611 128.345 176.151 127.807 172.698 127.309L171.985 132.258C175.401 132.751 178.827 133.283 182.253 133.85L183.07 128.917ZM162.288 125.929C158.786 125.506 155.301 125.129 151.842 124.802L151.372 129.78C154.786 130.102 158.228 130.475 161.689 130.892L162.288 125.929ZM141.365 123.965C137.818 123.735 134.309 123.565 130.848 123.461L130.697 128.459C134.097 128.561 137.549 128.728 141.042 128.954L141.365 123.965ZM120.301 123.35C116.71 123.388 113.186 123.507 109.742 123.714L110.041 128.705C113.397 128.504 116.839 128.387 120.354 128.35L120.301 123.35ZM99.1918 124.661C95.5761 125.103 92.0723 125.662 88.6994 126.347L89.6955 131.247C92.9264 130.59 96.2993 130.052 99.7979 129.624L99.1918 124.661ZM78.3195 129.005C74.7682 130.126 71.4105 131.435 68.2792 132.948L70.4545 137.45C73.3433 136.054 76.474 134.831 79.8252 133.773L78.3195 129.005ZM58.9354 138.613C57.4548 139.738 56.0584 140.937 54.7532 142.212L58.2468 145.788C59.3974 144.665 60.6365 143.6 61.9612 142.593L58.9354 138.613ZM54.7532 142.212C53.668 143.271 52.4599 144.468 51.1546 145.801L54.7261 149.3C55.9996 148 57.1807 146.83 58.2468 145.788L54.7532 142.212ZM44.1448 153.35C42.0433 155.743 39.8374 158.384 37.5877 161.272L41.5323 164.345C43.7164 161.541 45.8591 158.975 47.9022 156.648L44.1448 153.35ZM31.5064 169.591C29.6357 172.323 27.7714 175.222 25.9469 178.288L30.2439 180.845C32.0112 177.875 33.8179 175.065 35.6319 172.416L31.5064 169.591ZM20.975 187.301C19.4551 190.284 17.9905 193.398 16.6041 196.642L21.2019 198.607C22.5425 195.469 23.9592 192.457 25.4301 189.571L20.975 187.301ZM12.8768 206.265C11.7704 209.442 10.7468 212.728 9.82349 216.121L14.6481 217.434C15.5403 214.155 16.5294 210.98 17.5987 207.909L12.8768 206.265ZM7.46449 226.155C6.80673 229.463 6.24766 232.862 5.80062 236.352L10.7601 236.987C11.1924 233.613 11.7328 230.327 12.3685 227.13L7.46449 226.155ZM4.8368 246.618C4.63502 249.971 4.53778 253.4 4.55521 256.903L9.55515 256.878C9.53826 253.483 9.63249 250.164 9.82777 246.919L4.8368 246.618ZM4.93049 267.19C5.15699 270.541 5.48837 273.955 5.93242 277.432L10.8921 276.799C10.4606 273.419 10.1389 270.104 9.9191 266.852L4.93049 267.19ZM7.52422 287.592C8.13519 290.889 8.84693 294.239 9.66535 297.641L14.5267 296.472C13.7286 293.154 13.0353 289.891 12.4405 286.681L7.52422 287.592ZM12.3141 307.556C13.2568 310.768 14.2939 314.025 15.43 317.325L20.1577 315.698C19.0463 312.469 18.0325 309.286 17.1118 306.148L12.3141 307.556ZM18.9755 326.943C20.2006 330.061 21.5134 333.216 22.9174 336.41L27.4945 334.397C26.1168 331.264 24.8296 328.17 23.6291 325.114L18.9755 326.943ZM27.2278 345.733C28.686 348.741 30.2244 351.781 31.8459 354.853L36.2676 352.518C34.6723 349.496 33.1598 346.508 31.7271 343.552L27.2278 345.733ZM36.7433 363.778C37.5916 365.268 38.4593 366.766 39.3467 368.27L43.6533 365.73C42.7788 364.247 41.924 362.772 41.0885 361.305L36.7433 363.778Z" fill="black" fill-opacity="0.2"/>
</svg>
